<svg xmlns="http://www.w3.org/2000/svg" xmlns:xlink="http://www.w3.org/1999/xlink"><defs><symbol viewBox="0 0 31.797 31.797" id="envelope">
<g>
	<path d="M0,5.713v20.371h31.797V5.713H0z M29.201,7.092L15.899,18.178L2.595,7.092H29.201z M1.38,24.704V7.875l14.519,12.098
		L30.417,7.875v16.83L1.38,24.704L1.38,24.704z" />
</g>
<g>
</g>
<g>
</g>
<g>
</g>
<g>
</g>
<g>
</g>
<g>
</g>
<g>
</g>
<g>
</g>
<g>
</g>
<g>
</g>
<g>
</g>
<g>
</g>
<g>
</g>
<g>
</g>
<g>
</g>
</symbol><symbol viewBox="0 0 129 129" id="left-arrow">
  <g>
    <path d="m88.6,121.3c0.8,0.8 1.8,1.2 2.9,1.2s2.1-0.4 2.9-1.2c1.6-1.6 1.6-4.2 0-5.8l-51-51 51-51c1.6-1.6 1.6-4.2 0-5.8s-4.2-1.6-5.8,0l-54,53.9c-1.6,1.6-1.6,4.2 0,5.8l54,53.9z" />
  </g>
</symbol><symbol viewBox="0 0 512.002 512.002" id="male">
<g>
	<g>
		<path d="M466,511.999H46c-25.375,0-46-20.625-46-46l1.563-36.875c38.313-80.688,97.688-97.845,100.188-98.563l4.25-0.563h30
			c24.25,0,44-19.75,44-44v-14.266c-11.875-15.25-20.688-31.766-26.281-49.188l-1.125-3.594
			c-18.281-16.609-22.844-43.563-11.281-64.531c0.313-0.703,1.156-2.078,2.125-3.516l-0.094-17.203
			c-0.031-11.547-0.031-23.063,0.125-34.578c0.906-21.891,6.844-41.203,17.156-56.297c12.188-18.234,32.563-32.125,55.813-38
			c22.75-5.781,47.782-6.375,72.219-1.719c21.875,4.172,40.625,13.922,54.156,28.219c16,16.906,25.155,41.641,25.78,69.656
			c0.095,12.594,0.063,24.969,0.063,37.344l-0.031,12.688c0.469,0.672,0.813,1.281,1.156,1.891c12.094,19.281,8.906,47-7.813,63.719
			l-2.625,2.422c-6.562,20.781-15.655,38.283-27.344,53.33v13.625c0,24.25,19.75,44,44,44l34.25,0.562
			c2.5,0.719,61.875,17.875,100.188,98.562l1.562,6.875v30C512,491.374,491.375,511.999,466,511.999z M32,439.655v26.344
			c0,7.719,6.281,14,14,14h420c7.719,0,14-6.281,14-14v-26.344c-28.531-57.656-67.844-74.531-76.531-77.656H376
			c-41.906,0-76-34.095-76-76v-25.142l3.75-4.469c11.406-13.531,20.031-29.844,25.656-48.453c1-6.188,6.281-10.734,8.812-12.906
			c7.375-7.297,8.656-18.438,4-25.906c-2.219-3.203-5.938-8.391-5.562-15.766v-15.078c0-12.281,0.031-24.563-0.063-36.828
			c-0.438-19.828-6.5-37-17.03-48.125c-11.22-11.859-26.25-16.766-36.906-18.781c-19.906-3.828-40.094-3.344-58.375,1.297
			c-15.688,3.969-29.219,13.031-37.156,24.891c-7,10.281-11,23.828-11.688,39.297c-0.125,10.906-0.125,22.25-0.094,33.609v19.578
			c0.875,6.469-3.188,12.391-5.156,15.234c-5.281,9.469-3.156,21.094,3.813,26.813c6.25,4.281,8.469,11.75,9.656,15.766
			c5.406,17,13.531,31.5,24.625,44.797l3.719,4.469v25.703c0,41.906-34.094,76-76,76h-27.469C99.75,365.154,60.5,381.999,32,439.655
			z" />
	</g>
</g>
<g>
</g>
<g>
</g>
<g>
</g>
<g>
</g>
<g>
</g>
<g>
</g>
<g>
</g>
<g>
</g>
<g>
</g>
<g>
</g>
<g>
</g>
<g>
</g>
<g>
</g>
<g>
</g>
<g>
</g>
</symbol><symbol viewBox="0 0 512 512" id="planet">
  <g>
    <path d="m429.2,82.8c-46.2-46.3-107.8-71.8-173.2-71.8s-127,25.5-173.2,71.8-71.8,107.8-71.8,173.2 25.5,127 71.8,173.2 107.8,71.8 173.2,71.8 127-25.5 173.2-71.8 71.8-107.8 71.8-173.2-25.5-127-71.8-173.2zm49.6,162.2h-95c-0.9-37.8-6.2-74.2-15.5-106.5 18.1-9.3 35-21 50.5-34.8 35,37.4 57.3,86.8 60,141.3zm-211.8,22h94.9c-0.8,34.8-5.6,68.1-13.9,97.9-25.6-10.3-52.9-16.3-81-17.6v-80.3zm136-178.6c-12.8,11.3-26.8,20.9-41.6,28.9-3.8-10.6-8.1-20.6-12.9-30-9.5-18.8-20.3-34.2-32.2-46 32.5,9.1 62,25.4 86.7,47.1zm-136-52c22.9,5.1 44.5,26.2 61.9,60.6 4.7,9.3 8.9,19.2 12.6,29.7-23.5,9.7-48.6,15.4-74.5,16.7v-107zm81.1,111.4c8.2,29.6 12.9,62.7 13.7,97.3h-94.8v-79.6c28.2-1.3 55.5-7.4 81.1-17.7zm-103.1,97.2h-94.9c0.8-34.6 5.5-67.7 13.7-97.3 25.6,10.4 53,16.4 81.1,17.6v79.7zm.1-208.6v107c-25.9-1.3-51.1-7-74.5-16.7 3.7-10.5 7.9-20.4 12.6-29.7 17.4-34.4 39-55.5 61.9-60.6zm-49.3,4.9c-11.9,11.8-22.7,27.3-32.2,46-4.7,9.4-9,19.4-12.9,30-14.8-8-28.7-17.6-41.6-28.9 24.7-21.7 54.2-38 86.7-47.1zm-102.5,62.4c15.5,13.8 32.4,25.4 50.5,34.8-9.3,32.4-14.7,68.7-15.5,106.5h-95c2.7-54.5 25-103.9 60-141.3zm-60,163.3h95c0.9,38.1 6.3,74.6 15.7,107.1-18,9.3-34.9,20.8-50.3,34.6-35.3-37.5-57.7-87-60.4-141.7zm76.2,157c12.8-11.2 26.7-20.8 41.4-28.7 3.8,10.3 8,20.2 12.7,29.4 9.5,18.8 20.3,34.2 32.2,46.1-32.3-9.1-61.7-25.3-86.3-46.8zm135.6,51.6c-22.9-5.1-44.5-26.2-61.9-60.6-4.6-9.1-8.7-18.8-12.4-29.1 23.4-9.7 48.5-15.4 74.3-16.6v106.3zm-81-110.7c-8.3-29.8-13.1-63.1-13.9-97.9h94.9v80.3c-28.1,1.2-55.4,7.2-81,17.6zm103,110.7v-106.3c25.8,1.3 50.9,6.9 74.3,16.6-3.7,10.3-7.8,20-12.4,29.1-17.4,34.4-39,55.5-61.9,60.6zm49.3-4.9c11.9-11.8 22.7-27.3 32.2-46.1 4.7-9.2 8.9-19.1 12.7-29.4 14.7,7.9 28.6,17.5 41.4,28.7-24.6,21.6-54,37.8-86.3,46.8zm102.2-62c-15.4-13.7-32.3-25.3-50.3-34.6 9.4-32.5 14.8-69.1 15.7-107.1h95c-2.8,54.7-25.2,104.2-60.4,141.7z" />
  </g>
</symbol></defs></svg>